<svg xmlns="http://www.w3.org/2000/svg" width="21" height="12" viewBox="0 0 21 12" fill="none">
  <path d="M7.16488 11.2989V9.36837C6.54272 10.6956 5.25826 11.5 3.61254 11.5C1.42495 11.5 0 10.2733 0 8.36289C0 6.29159 1.64571 5.20567 4.85686 5.20567C5.49909 5.20567 5.98077 5.24589 7.02439 5.32632V4.4415C7.02439 2.67185 6.08111 1.62614 4.47554 1.62614C2.74955 1.62614 1.66578 2.69196 1.64571 4.42139H0.361254C0.421463 2.06856 2.04711 0.5 4.45547 0.5C6.92404 0.5 8.36906 1.9479 8.36906 4.40128V11.2989H7.16488ZM1.34467 8.32267C1.34467 9.60969 2.32808 10.4744 3.81324 10.4744C5.78007 10.4744 7.02439 9.18739 7.02439 7.19653V6.25137C6.12125 6.17093 5.49909 6.15082 4.91707 6.15082C2.50871 6.15082 1.34467 6.85466 1.34467 8.32267Z" fill="black"/>
  <path d="M15.9625 11.5C13.0524 11.5 10.9451 9.18739 10.9451 5.98995C10.9451 2.81261 13.0524 0.520109 15.9625 0.520109C18.8927 0.520109 21 2.81261 21 5.98995C21 9.18739 18.8927 11.5 15.9625 11.5ZM15.9625 10.2733C18.0297 10.2733 19.5751 8.62431 19.5751 5.98995C19.5751 3.3958 18.0297 1.7468 15.9625 1.7468C13.9154 1.7468 12.37 3.3958 12.37 5.98995C12.37 8.62431 13.9154 10.2733 15.9625 10.2733Z" fill="black"/>
</svg>