      <svg
            width="20"
            height="20"
            viewBox="0 0 15 12"
            fill="none"
            xmlns="http://www.w3.org/2000/svg"
          >
            <path
              d="M11.9521 0.630842C11.866 0.569978 11.7717 0.530862 11.6753 0.51242M11.4113 0.512796C11.3839 0.518095 11.3571 0.524929 11.331 0.533195M11.4113 0.512796C11.413 0.512478 11.4146 0.51215 11.4163 0.511823M11.4113 0.512796L11.4163 0.511823M11.3689 4.31299L12.2337 1.46498C12.2687 1.34994 12.2751 1.23274 12.257 1.12147M11.3689 4.31299L12.5679 10.8935C12.6414 11.297 13.0188 11.5627 13.4108 11.4871C13.8028 11.4114 14.061 11.0231 13.9875 10.6196L12.257 1.12147M11.3689 4.31299L9.345 10.9783C9.22603 11.37 8.82097 11.5884 8.44028 11.466C8.05958 11.3435 7.8474 10.9267 7.96637 10.5349L9.4282 5.72076M12.257 1.12147L12.2543 1.10632C12.2459 1.06049 12.2336 1.01643 12.2179 0.974461M12.257 1.12147C12.249 1.07153 12.2359 1.02225 12.2179 0.974461M9.4282 5.72076L5.7828 11.1776C5.55683 11.5159 5.10722 11.6016 4.77854 11.369C4.44987 11.1365 4.36661 10.6738 4.59257 10.3355L7.12614 6.54298M9.4282 5.72076L10.8506 1.03634M7.12614 6.54298L10.9478 0.822233C10.9709 0.78769 10.9963 0.755781 11.0237 0.726577M7.12614 6.54298C4.67077 8.92124 2.21715 11.2978 2.21715 11.2978C1.92671 11.5791 1.46965 11.5649 1.19629 11.266C0.922933 10.9671 0.936783 10.4967 1.22723 10.2154L11.0237 0.726577M11.0237 0.726577L11.049 0.702075C11.0526 0.69855 11.0564 0.695158 11.0601 0.691776M11.0237 0.726577C11.1103 0.634185 11.2167 0.56925 11.331 0.533195M11.0237 0.726577C11.1315 0.611535 11.2699 0.538678 11.4163 0.511823M11.4263 0.509918C11.4229 0.51049 11.4196 0.511155 11.4163 0.511823M11.4263 0.509918C11.4334 0.508713 11.4406 0.507616 11.4478 0.50663M11.4263 0.509918L11.4163 0.511823M11.331 0.533195C11.23 0.565205 11.1399 0.618695 11.0646 0.687721M11.331 0.533195C11.2351 0.563569 11.1441 0.614962 11.0646 0.687721M11.331 0.533195C11.2327 0.564574 11.1417 0.617274 11.0646 0.687721M11.331 0.533195C11.3589 0.52429 11.3874 0.517211 11.4163 0.511823M11.0646 0.687721L11.0601 0.691776M11.0646 0.687721C10.9891 0.756591 10.927 0.842424 10.8842 0.94188M11.0646 0.687721C10.9875 0.75831 10.926 0.845148 10.8842 0.94188M11.0646 0.687721C11.0631 0.689076 11.0616 0.690425 11.0601 0.691776M10.8842 0.94188C10.871 0.972446 10.8598 1.004 10.8506 1.03634M10.8842 0.94188C10.8732 0.967566 10.8635 0.99416 10.8551 1.02161L10.8506 1.03634M10.8842 0.94188C10.9252 0.847009 10.9851 0.761618 11.0601 0.691776M10.8842 0.94188C10.9261 0.844381 10.9867 0.759945 11.0601 0.691776M12.2179 0.974461C12.185 0.8877 12.1356 0.805857 12.0698 0.733911C11.9603 0.614154 11.8213 0.540089 11.6753 0.51242M12.2179 0.974461C12.1266 0.731749 11.9185 0.558575 11.6753 0.51242M12.2179 0.974461C12.141 0.770971 11.9781 0.604079 11.7598 0.533897C11.7318 0.524868 11.7036 0.517762 11.6753 0.51242M11.6753 0.51242C11.6632 0.510123 11.651 0.50814 11.6388 0.506479C11.6366 0.50618 11.6344 0.505901 11.6322 0.505623M11.6322 0.505623L11.6304 0.505378C11.6104 0.502891 11.5905 0.501314 11.5706 0.50054M11.6322 0.505623C11.6119 0.503058 11.5913 0.501346 11.5706 0.50054M11.4163 0.511823C11.4267 0.509901 11.4372 0.508141 11.4478 0.50663M11.5706 0.50054C11.5371 0.499232 11.5038 0.5003 11.4709 0.503754C11.4632 0.504555 11.4555 0.505526 11.4478 0.50663M11.5706 0.50054C11.5295 0.498977 11.4884 0.501049 11.4478 0.50663"
              stroke="black"
              stroke-width="0.5"
              stroke-linecap="round"
            />
          </svg>